<?xml version="1.0" encoding="UTF-8"?><svg id="_圖層_1" xmlns="http://www.w3.org/2000/svg" viewBox="0 0 1120 510.83"><path d="m573.4,207.97c-2.51-.19-5.04-.29-7.59-.29-2.68,0-5.33.11-7.96.32l6.72,62.62h2.71l6.11-62.65Z" style="fill:#bf9a5a; stroke-width:0px;"/><path d="m573.89,202.77c-2.67-.21-5.36-.32-8.08-.32-2.87,0-5.71.12-8.51.35L535.47,0l57.48,7.65-19.06,195.12Z" style="fill:#bf9a5a; stroke-width:0px;"/><path d="m594.15,211.77c-2.41-.71-4.86-1.33-7.36-1.87-2.62-.56-5.24-1.01-7.85-1.35l-6.52,62.64,2.65.57,19.07-59.98Z" style="fill:#bf9a5a; stroke-width:0px;"/><path d="m595.72,206.79c-2.56-.76-5.18-1.43-7.84-2-2.8-.6-5.61-1.08-8.4-1.44L600.55.46l54.61,19.5-59.44,186.82Z" style="fill:#bf9a5a; stroke-width:0px;"/><path d="m552.32,208.6c-2.49.34-4.99.77-7.48,1.31-2.62.56-5.19,1.22-7.72,1.97l19.67,59.83,2.65-.57-7.13-62.54Z" style="fill:#bf9a5a; stroke-width:0px;"/><path d="m551.71,203.41c-2.65.35-5.31.81-7.97,1.38-2.8.6-5.56,1.31-8.25,2.12L471.73,13.15l57.81-4.54,22.17,194.79Z" style="fill:#bf9a5a; stroke-width:0px;"/><path d="m531.83,213.62c-2.36.85-4.71,1.8-7.04,2.84-2.44,1.1-4.82,2.28-7.13,3.54l31.75,54.39,2.48-1.11-20.05-59.67Z" style="fill:#bf9a5a; stroke-width:0px;"/><path d="m530.15,208.67c-2.52.9-5.02,1.9-7.5,3.02-2.62,1.17-5.16,2.44-7.63,3.8l-102.86-176.14,55.58-16.53,62.41,185.85Z" style="fill:#bf9a5a; stroke-width:0px;"/><path d="m512.84,222.81c-2.13,1.33-4.23,2.74-6.29,4.25-2.16,1.58-4.24,3.24-6.23,4.96l42.42,46.55,2.19-1.6-32.08-54.16Z" style="fill:#bf9a5a; stroke-width:0px;"/><path d="m510.16,218.32c-2.28,1.41-4.51,2.91-6.71,4.52-2.31,1.69-4.53,3.47-6.66,5.31l-137.42-150.74,50.9-27.78,99.89,168.69Z" style="fill:#bf9a5a; stroke-width:0px;"/><path d="m496.19,235.77c-1.81,1.74-3.57,3.57-5.27,5.47-1.78,2-3.47,4.05-5.06,6.15l51.21,36.65,1.81-2.03-42.69-46.25Z" style="fill:#bf9a5a; stroke-width:0px;"/><path d="m492.64,231.94c-1.93,1.85-3.8,3.79-5.61,5.82-1.91,2.14-3.71,4.34-5.4,6.59l-165.9-118.67,43.96-37.81,132.96,144.07Z" style="fill:#bf9a5a; stroke-width:0px;"/><path d="m482.63,251.93c-1.41,2.08-2.74,4.23-4,6.45-1.33,2.33-2.54,4.69-3.66,7.07l57.75,25.13,1.34-2.36-51.42-36.3Z" style="fill:#bf9a5a; stroke-width:0px;"/><path d="m478.35,248.93c-1.5,2.21-2.93,4.5-4.27,6.87-1.42,2.49-2.72,5.02-3.91,7.57l-187.05-81.35,35.08-46.17,160.15,113.09Z" style="fill:#bf9a5a; stroke-width:0px;"/><path d="m613.65,219.83c-2.21-1.2-4.48-2.32-6.81-3.37-2.44-1.1-4.91-2.08-7.39-2.96l-19.47,59.89,2.48,1.11,31.2-54.67Z" style="fill:#bf9a5a; stroke-width:0px;"/><path d="m616.23,215.28c-2.35-1.28-4.76-2.48-7.24-3.59-2.62-1.17-5.26-2.23-7.91-3.16l63.02-193.99,49.33,30.49-97.19,170.26Z" style="fill:#bf9a5a; stroke-width:0px;"/><path d="m631.04,231.78c-1.91-1.63-3.89-3.21-5.95-4.72-2.16-1.58-4.37-3.06-6.61-4.45l-31.57,54.5,2.19,1.6,41.94-46.94Z" style="fill:#bf9a5a; stroke-width:0px;"/><path d="m634.51,227.87c-2.03-1.74-4.14-3.42-6.33-5.03-2.31-1.69-4.67-3.28-7.08-4.75l102.19-176.53,41.86,40.13-130.64,146.18Z" style="fill:#bf9a5a; stroke-width:0px;"/><path d="m645.53,247.1c-1.52-2-3.14-3.95-4.84-5.86-1.78-2-3.63-3.91-5.53-5.73l-42.26,46.69,1.81,2.03,50.83-37.13Z" style="fill:#bf9a5a; stroke-width:0px;"/><path d="m649.75,244.01c-1.62-2.13-3.33-4.21-5.14-6.24-1.91-2.14-3.89-4.18-5.93-6.12l136.85-151.26,32.54,47.99-158.32,115.63Z" style="fill:#bf9a5a; stroke-width:0px;"/><path d="m656.51,265.12c-1.07-2.27-2.24-4.52-3.5-6.74-1.33-2.33-2.73-4.58-4.21-6.76l-51.09,36.82,1.34,2.36,57.47-25.68Z" style="fill:#bf9a5a; stroke-width:0px;"/><path d="m661.27,262.97c-1.14-2.42-2.38-4.82-3.72-7.18-1.42-2.49-2.93-4.9-4.52-7.23l165.45-119.3,21.79,53.74-179,79.96Z" style="fill:#bf9a5a; stroke-width:0px;"/><path d="m466.3,355.68h-13.59v.28l2.89,5.4v59.47h10.7v-65.15Z" style="fill:#bf9a5a; stroke-width:0px;"/><path d="m264.57,355.68h-31.08v.28l2.88,5.4v59.47h28.66c18.61-.19,32.67-14.24,32.67-32.48s-14.24-32.67-33.13-32.67Zm15.91,48.67c-4.19,4.19-9.96,6.42-15.91,6.33h-17.4v-44.76h17.4c5.96-.19,11.73,2.14,15.91,6.33s6.51,10.14,6.42,16.1c.09,5.96-2.23,11.82-6.42,16.01Z" style="fill:#bf9a5a; stroke-width:0px;"/><path d="m338.33,355.68h-11.82v.28l1.68,4.09-26.15,60.77h11.26l6.33-15.45h29.32l6.51,15.45h11.35l-28.48-65.15Zm-14.98,40.39l10.52-25.78h.28l10.89,25.78h-21.68Z" style="fill:#bf9a5a; stroke-width:0px;"/><path d="m415.31,392.63c10.24-1.77,16.66-8.93,16.66-18.8,0-11.07-7.35-18.15-21.5-18.15h-32.85v.28l2.88,5.4v59.47h10.7v-27.83h11.63l21.31,27.83h12.66l-21.5-28.2Zm-24.1-8.93v-18.71h18.89c7.35,0,10.98,4.47,10.98,9.4s-3.63,9.31-10.98,9.31h-18.89Z" style="fill:#bf9a5a; stroke-width:0px;"/><path d="m623.82,353.54c-19.08,0-35.46,15.36-35.46,34.53s16.38,34.71,35.46,34.71,35.45-15.64,35.45-34.71-16.37-34.53-35.45-34.53Zm0,58.45c-13.12,0-24.66-10.79-24.66-23.91s11.54-23.74,24.66-23.74,24.66,10.52,24.66,23.74-11.54,23.91-24.66,23.91Z" style="fill:#bf9a5a; stroke-width:0px;"/><path d="m712.43,392.63c10.24-1.77,16.66-8.93,16.66-18.8,0-11.07-7.35-18.15-21.5-18.15h-32.85v.28l2.88,5.4v59.47h10.7v-27.83h11.63l21.31,27.83h12.66l-21.5-28.2Zm-24.1-8.93v-18.71h18.89c7.35,0,10.98,4.47,10.98,9.4s-3.63,9.31-10.98,9.31h-18.89Z" style="fill:#bf9a5a; stroke-width:0px;"/><path d="m1027.67,355.68h-11.82v.28l1.68,4.09-26.15,60.77h11.26l6.33-15.45h29.32l6.51,15.45h11.35l-28.48-65.15Zm-14.98,40.39l10.52-25.78h.28l10.89,25.78h-21.68Z" style="fill:#bf9a5a; stroke-width:0px;"/><polygon points="1084.52 355.68 1070.93 355.68 1070.93 355.96 1073.81 361.36 1073.81 420.83 1120 420.83 1120 411.06 1084.52 411.06 1084.52 355.68" style="fill:#bf9a5a; stroke-width:0px;"/><polygon points="990.65 355.68 930.3 355.68 930.3 355.96 935.32 365.27 955.96 365.27 955.96 420.83 966.66 420.83 966.66 365.27 990.65 365.27 990.65 355.68" style="fill:#bf9a5a; stroke-width:0px;"/><polygon points="870.07 355.68 856.48 355.68 856.48 355.96 859.37 361.36 859.37 420.83 870.07 420.83 870.07 371.69 913.9 422.13 915.39 422.13 915.39 355.68 904.69 355.68 904.69 395.8 870.07 355.68" style="fill:#bf9a5a; stroke-width:0px;"/><polygon points="837.46 355.68 785.93 355.68 785.93 355.96 788.81 361.36 788.81 420.83 838.39 420.83 838.39 411.06 799.52 411.06 799.52 390.4 828.11 390.4 828.11 381.09 799.52 381.09 799.52 365.46 837.46 365.46 837.46 355.68" style="fill:#bf9a5a; stroke-width:0px;"/><polygon points="763.53 355.68 749.95 355.68 749.95 355.96 752.83 361.36 752.83 420.83 763.53 420.83 763.53 355.68" style="fill:#bf9a5a; stroke-width:0px;"/><polygon points="500.4 355.68 486.82 355.68 486.82 355.96 489.7 361.36 489.7 420.83 500.4 420.83 500.4 371.69 544.24 422.13 545.73 422.13 545.73 355.68 535.02 355.68 535.02 395.8 500.4 355.68" style="fill:#bf9a5a; stroke-width:0px;"/><polygon points="171.52 355.68 157.94 355.68 157.94 355.96 160.82 361.36 160.82 420.83 171.52 420.83 171.52 371.69 215.36 422.13 216.85 422.13 216.85 355.68 206.14 355.68 206.14 395.8 171.52 355.68" style="fill:#bf9a5a; stroke-width:0px;"/><path d="m119.36,355.68h-11.82v.28l1.68,4.09-26.15,60.77h11.26l6.33-15.45h29.32l6.51,15.45h11.35l-28.48-65.15Zm-14.98,40.39l10.52-25.78h.28l10.89,25.78h-21.68Z" style="fill:#bf9a5a; stroke-width:0px;"/><polygon points="13.59 355.68 0 355.68 0 355.96 2.88 361.36 2.88 420.83 13.59 420.83 13.59 376.9 35.92 420.83 37.41 420.83 59.65 376.35 59.65 420.83 70.36 420.83 70.36 361.36 73.24 355.96 73.24 355.68 59.65 355.68 36.85 401.19 13.59 355.68" style="fill:#bf9a5a; stroke-width:0px;"/><path d="m477.69,478.43v32.4h-5.79v-32.4h-8.68v-5.45h23.15v5.45h-8.68Z" style="fill:#bf9a5a; stroke-width:0px;"/><path d="m522.8,501.7h-16.17l-4.14,9.14h-6.24l18.84-40.07,17.93,40.07h-6.24l-3.97-9.14Zm-2.33-5.45l-5.62-12.83-5.85,12.83h11.46Z" style="fill:#bf9a5a; stroke-width:0px;"/><path d="m554.92,472.98v37.85h-5.79v-37.85h5.79Z" style="fill:#bf9a5a; stroke-width:0px;"/><path d="m583.69,472.98c2.33,0,5.56.23,8.29,2.04,3.18,2.1,4.71,5.73,4.71,9.19,0,2.21-.57,5.62-3.69,8.28-3.01,2.55-6.47,2.95-9.25,2.95h-2.61v15.38h-5.79v-37.85h8.34Zm-2.55,17.14h2.61c4.99,0,7.38-2.44,7.38-5.96,0-2.1-.85-5.85-7.43-5.85h-2.55v11.8Z" style="fill:#bf9a5a; stroke-width:0px;"/><path d="m634.82,478.43h-15.1v9.59h14.64v5.45h-14.64v11.92h15.1v5.45h-20.88v-37.85h20.88v5.45Z" style="fill:#bf9a5a; stroke-width:0px;"/><path d="m659.45,472.98v37.85h-5.79v-37.85h5.79Z" style="fill:#bf9a5a; stroke-width:0px;"/></svg>